<svg height="500" viewBox="0 0 500 500" width="500" xmlns="http://www.w3.org/2000/svg"><path d="m0 0h500v500h-500z" fill="#fff" stroke="#000"/><g transform="matrix(1.12300396 0 0 1.12300396 -84.699036 78.075127)"><path d="m186.138 128.255v-158.267h-1.631l-67.394 24.566v25.001l40.219-14.565v123.265zm90.326-91.851v22.392h16.088q6.413 0 11.576 1.467 5.163 1.468 8.859 4.511 3.587 3.044 5.544 7.718 1.956 4.674 1.956 11.196 0 5.544-1.685 9.892-1.684 4.348-4.837 7.283-3.261 3.261-8.098 4.946-4.837 1.684-10.815 1.684-5.435 0-10.001-1.63-4.565-1.631-7.826-4.674-3.37-2.826-5.163-6.903-1.794-4.076-1.794-8.859h-28.588q0 11.305 4.402 19.729 4.403 8.425 11.794 14.077 7.392 5.652 16.957 8.424 9.566 2.772 19.675 2.772 11.522 0 21.523-3.098 10-3.098 17.283-9.076 7.391-5.87 11.522-14.566 4.131-8.696 4.131-19.783 0-6.088-1.468-11.74-1.467-5.652-4.62-10.435-3.152-4.783-8.043-8.533-4.892-3.75-11.631-6.142 5.761-2.717 10.163-6.522 4.403-3.804 7.337-8.261 2.935-4.457 4.403-9.402 1.467-4.946 1.467-9.946 0-11.088-3.804-19.512-3.805-8.424-10.653-14.185-6.848-5.653-16.468-8.533-9.62-2.881-21.142-2.881-10.87 0-20.218 3.207-9.348 3.207-16.196 8.859-6.848 5.761-10.762 13.75-3.913 7.99-3.913 17.555h28.588q0-4.674 1.794-8.424 1.793-3.75 4.946-6.359 3.043-2.609 7.228-4.022 4.185-1.413 9.077-1.413 5.652 0 10 1.576 4.348 1.577 7.283 4.403 2.826 2.935 4.239 7.011 1.413 4.076 1.413 9.076 0 5-1.467 9.24-1.468 4.239-4.403 7.174-3.043 3.37-7.935 5.163-4.891 1.794-11.63 1.794zm137.719 75.111q0 8.044 5.381 13.479 5.381 5.435 14.729 5.435 9.239 0 14.729-5.381 5.489-5.38 5.489-13.533 0-8.152-5.381-13.75-5.38-5.598-14.837-5.598-9.566 0-14.838 5.652-5.272 5.652-5.272 13.696zm0-90.655q0 8.043 5.381 13.478 5.381 5.435 14.729 5.435 9.239 0 14.729-5.38 5.489-5.381 5.489-13.533 0-8.153-5.381-13.751-5.38-5.598-14.837-5.598-9.566 0-14.838 5.653-5.272 5.652-5.272 13.696z"/><path d="m142.875 259.021v22.392h16.088q6.413 0 11.576 1.467 5.163 1.468 8.859 4.511 3.587 3.044 5.544 7.718 1.956 4.674 1.956 11.196 0 5.544-1.684 9.892-1.685 4.348-4.838 7.283-3.261 3.261-8.098 4.945-4.837 1.685-10.815 1.685-5.435 0-10.001-1.63-4.565-1.631-7.826-4.674-3.37-2.826-5.163-6.903-1.794-4.076-1.794-8.859h-28.588q0 11.305 4.403 19.729 4.402 8.425 11.793 14.077 7.392 5.652 16.958 8.424 9.565 2.772 19.674 2.772 11.522 0 21.523-3.098 10-3.098 17.283-9.076 7.392-5.87 11.522-14.566 4.131-8.696 4.131-19.784 0-6.087-1.468-11.739-1.467-5.652-4.619-10.435-3.153-4.783-8.044-8.533-4.892-3.75-11.631-6.142 5.761-2.717 10.163-6.522 4.403-3.804 7.338-8.261 2.934-4.457 4.402-9.402 1.467-4.946 1.467-9.946 0-11.088-3.804-19.512-3.805-8.424-10.653-14.185-6.848-5.653-16.468-8.533-9.62-2.881-21.142-2.881-10.87 0-20.218 3.207-9.348 3.206-16.196 8.859-6.848 5.761-10.761 13.75-3.914 7.99-3.914 17.555h28.588q0-4.674 1.794-8.424 1.793-3.75 4.946-6.359 3.043-2.609 7.228-4.022 4.185-1.413 9.077-1.413 5.652 0 10 1.576 4.348 1.577 7.283 4.403 2.826 2.935 4.239 7.011 1.413 4.076 1.413 9.076 0 5-1.467 9.24-1.468 4.239-4.402 7.174-3.044 3.37-7.935 5.163-4.892 1.794-11.631 1.794zm207.179-50.437v-15.979h-110.548v23.479h80.438l-62.285 134.788h30.11zm69.238 94.786h25.979q0-4.348.218-7.446.217-3.098 1.087-5.815.869-2.609 2.663-5.163 1.794-2.555 5.055-5.816 5.326-4.674 10.598-9.674 5.272-5 9.402-10.653 4.131-5.543 6.794-12.011 2.663-6.468 2.663-14.185 0-10.327-3.424-18.208-3.424-7.88-9.837-13.315-6.522-5.327-15.979-8.044-9.457-2.717-21.305-2.717-10.653 0-19.784 2.663-9.13 2.663-15.87 8.098-6.739 5.326-10.707 13.37-3.967 8.044-4.076 18.805h28.697q.109-5.109 1.956-8.75 1.848-3.642 4.892-6.033 3.044-2.283 6.902-3.37 3.859-1.087 7.99-1.087 5.217 0 9.294 1.196 4.076 1.195 6.902 3.587 2.718 2.5 4.131 6.25 1.413 3.75 1.413 8.859 0 4.348-1.902 8.587-1.903 4.24-4.838 8.262-3.043 4.13-6.793 7.88-3.75 3.75-7.446 7.229-5.109 4.13-7.99 7.717-2.88 3.588-4.402 7.609-1.413 4.24-1.848 9.457-.435 5.218-.435 12.718zm-4.13 33.154q0 6.63 4.402 11.141 4.402 4.511 12.337 4.511 7.827 0 12.392-4.511 4.566-4.511 4.566-11.141 0-6.848-4.566-11.468-4.565-4.62-12.392-4.62-7.935 0-12.337 4.62-4.402 4.62-4.402 11.468z"/></g></svg>